<?xml version="1.0" standalone="no"?>
<!DOCTYPE svg PUBLIC "-//W3C//DTD SVG 20010904//EN"
 "http://www.w3.org/TR/2001/REC-SVG-20010904/DTD/svg10.dtd">
<svg version="1.0" xmlns="http://www.w3.org/2000/svg"
 width="1024.000000pt" height="1024.000000pt" viewBox="0 0 1024.000000 1024.000000"
 preserveAspectRatio="xMidYMid meet">

<g transform="translate(0.000000,1024.000000) scale(0.100000,-0.100000)"
fill="#000000" stroke="none">
<path d="M4940 8274 c-295 -22 -569 -76 -825 -164 -768 -265 -1384 -769 -1773
-1450 -180 -314 -314 -707 -376 -1095 -37 -237 -44 -601 -15 -865 47 -442 226
-951 462 -1320 342 -533 799 -930 1374 -1193 560 -256 1192 -346 1805 -257
937 137 1744 663 2249 1465 229 364 381 801 446 1283 24 180 24 639 0 807 -83
569 -267 1033 -579 1460 -271 369 -590 657 -992 898 -380 227 -760 357 -1196
412 -123 15 -472 27 -580 19z m451 -164 c392 -40 734 -137 1049 -298 347 -178
599 -361 851 -618 140 -144 194 -209 326 -400 345 -495 512 -1010 530 -1629
15 -534 -96 -1039 -330 -1494 -67 -131 -212 -354 -314 -481 -93 -116 -358
-381 -473 -472 -286 -227 -633 -412 -968 -517 -780 -245 -1564 -183 -2317 184
-547 266 -1028 733 -1305 1266 -314 606 -418 1267 -305 1937 82 485 240 880
488 1223 135 188 187 250 337 399 169 170 265 250 440 369 522 354 1099 536
1706 540 100 1 228 -4 285 -9z"/>
<path d="M4930 7159 c-349 -36 -711 -162 -990 -346 -431 -284 -741 -717 -865
-1208 -52 -203 -59 -268 -59 -500 0 -202 2 -230 27 -350 51 -241 157 -502 268
-666 l38 -57 3 -554 3 -555 28 -36 c40 -52 90 -66 148 -40 24 11 172 101 329
200 157 99 305 192 331 206 l45 27 90 -36 c394 -156 870 -197 1273 -108 329
73 687 245 921 443 269 228 491 539 605 849 165 450 173 877 24 1323 -156 471
-492 874 -948 1139 -218 126 -488 218 -755 255 -137 19 -396 26 -516 14z m516
-174 c390 -64 740 -232 1032 -495 191 -172 332 -361 441 -592 123 -259 170
-472 171 -758 0 -442 -130 -818 -401 -1155 -273 -338 -639 -571 -1074 -680
-183 -47 -301 -58 -533 -52 -276 7 -491 52 -741 157 -104 43 -125 49 -144 39
-37 -20 -569 -359 -620 -396 -27 -19 -50 -33 -52 -31 -2 2 -5 237 -7 524 l-4
520 -53 80 c-70 106 -163 297 -200 414 -161 497 -104 1014 161 1483 256 451
706 782 1233 907 113 27 218 45 310 54 80 8 392 -4 481 -19z"/>
<path d="M5785 5520 c-148 -24 -240 -164 -205 -311 18 -76 93 -151 174 -174
103 -30 190 -4 263 79 67 76 81 172 39 261 -49 107 -156 164 -271 145z"/>
<path d="M4329 5495 c-87 -45 -131 -120 -132 -225 -1 -96 47 -175 138 -223 56
-30 164 -30 221 0 43 23 94 75 118 121 58 112 1 274 -117 331 -63 30 -166 28
-228 -4z"/>
<path d="M2270 7650 c-16 -16 -20 -33 -20 -90 0 -51 6 -82 20 -110 25 -49 25
-54 -1 -89 -26 -35 -38 -143 -19 -166 32 -38 75 -5 85 66 4 26 15 61 26 78 17
28 23 31 72 31 58 0 97 20 97 50 0 32 -28 48 -95 55 -82 9 -96 26 -94 110 2
46 -2 61 -16 71 -25 18 -31 18 -55 -6z"/>
<path d="M7754 7600 c-65 -26 -84 -117 -36 -170 22 -26 35 -31 71 -32 39 0 49
4 79 37 31 33 34 42 29 79 -10 72 -77 113 -143 86z"/>
<path d="M2012 7368 c-17 -17 -15 -53 6 -70 19 -18 192 -81 200 -74 6 7 -33
90 -50 103 -15 13 -117 53 -133 53 -6 0 -16 -5 -23 -12z"/>
<path d="M8106 3226 c-57 -21 -87 -47 -113 -96 -60 -112 0 -243 129 -282 84
-25 197 43 228 137 48 144 -103 292 -244 241z m111 -128 c33 -31 32 -90 -3
-117 -39 -31 -77 -27 -108 10 -29 34 -32 50 -14 82 27 51 85 63 125 25z"/>
<path d="M2072 3199 c-25 -12 -55 -39 -70 -62 -23 -34 -27 -51 -27 -112 0 -63
3 -76 29 -109 58 -76 142 -102 217 -68 116 52 161 178 100 278 -52 86 -161
118 -249 73z m140 -116 c50 -45 15 -132 -55 -133 -35 0 -77 40 -77 75 0 16 12
39 30 57 25 24 36 29 58 23 15 -3 34 -13 44 -22z"/>
</g>
</svg>
